<svg xmlns="http://www.w3.org/2000/svg" xmlns:xlink="http://www.w3.org/1999/xlink" width="500" zoomAndPan="magnify" viewBox="0 0 375 187.499995" height="250" preserveAspectRatio="xMidYMid meet" version="1.0"><defs><g/><clipPath id="5c233be676"><rect x="0" width="149" y="0" height="79"/></clipPath><clipPath id="3c34bd4e8b"><path d="M 34 56 L 124 56 L 124 157 L 34 157 Z M 34 56 " clip-rule="nonzero"/></clipPath><clipPath id="a6cb81a914"><path d="M 79.9375 30.285156 L 164.609375 85.308594 L 116.921875 158.691406 L 32.25 103.667969 Z M 79.9375 30.285156 " clip-rule="nonzero"/></clipPath><clipPath id="2395024ffc"><path d="M 79.9375 30.285156 L 164.609375 85.308594 L 116.921875 158.691406 L 32.25 103.667969 Z M 79.9375 30.285156 " clip-rule="nonzero"/></clipPath></defs><g transform="matrix(1, 0, 0, 1, 124, 45)"><g clip-path="url(#5c233be676)"><g fill="#253636" fill-opacity="1"><g transform="translate(0.481513, 61.50937)"><g><path d="M 11.71875 0.328125 C 8.800781 0.328125 6.398438 -0.859375 4.515625 -3.234375 C 2.640625 -5.609375 1.703125 -8.472656 1.703125 -11.828125 C 1.703125 -15.484375 2.664062 -18.394531 4.59375 -20.5625 C 6.53125 -22.738281 9.269531 -23.828125 12.8125 -23.828125 C 16.351562 -23.828125 19.054688 -22.894531 20.921875 -21.03125 L 20.921875 -32.046875 L 28.328125 -32.046875 L 28.328125 0 L 21.359375 0 L 20.921875 -2.6875 C 18.984375 -0.675781 15.914062 0.328125 11.71875 0.328125 Z M 14.578125 -4.984375 C 16.285156 -4.984375 17.769531 -5.46875 19.03125 -6.4375 C 20.289062 -7.40625 20.921875 -8.601562 20.921875 -10.03125 L 20.921875 -13.6875 C 20.921875 -15.082031 20.328125 -16.234375 19.140625 -17.140625 C 17.953125 -18.054688 16.59375 -18.515625 15.0625 -18.515625 C 13.3125 -18.515625 11.878906 -18.03125 10.765625 -17.0625 C 9.648438 -16.09375 9.09375 -14.550781 9.09375 -12.4375 L 9.09375 -11.828125 C 9.09375 -9.816406 9.617188 -8.171875 10.671875 -6.890625 C 11.734375 -5.617188 13.035156 -4.984375 14.578125 -4.984375 Z M 14.578125 -4.984375 "/></g></g></g><g fill="#253636" fill-opacity="1"><g transform="translate(31.586256, 61.50937)"><g><path d="M 9.640625 0.328125 C 7.453125 0.328125 5.546875 -0.269531 3.921875 -1.46875 C 2.296875 -2.675781 1.484375 -4.429688 1.484375 -6.734375 C 1.484375 -8.378906 2.007812 -9.757812 3.0625 -10.875 C 4.125 -11.988281 5.601562 -12.78125 7.5 -13.25 C 9.40625 -13.726562 11.207031 -14.050781 12.90625 -14.21875 C 14.601562 -14.382812 16.566406 -14.46875 18.796875 -14.46875 C 18.796875 -15.957031 18.390625 -17.003906 17.578125 -17.609375 C 16.773438 -18.210938 15.644531 -18.515625 14.1875 -18.515625 C 11.195312 -18.515625 9.644531 -17.726562 9.53125 -16.15625 L 2.84375 -16.15625 C 3.644531 -21.269531 7.316406 -23.828125 13.859375 -23.828125 C 18.347656 -23.828125 21.523438 -22.929688 23.390625 -21.140625 C 25.253906 -19.359375 26.1875 -16.566406 26.1875 -12.765625 L 26.1875 0 L 19.28125 0 L 18.796875 -2.578125 C 17.253906 -0.640625 14.203125 0.328125 9.640625 0.328125 Z M 13.578125 -4.984375 C 14.203125 -4.984375 15.0625 -5.164062 16.15625 -5.53125 C 17.25 -5.894531 18.128906 -6.351562 18.796875 -6.90625 L 18.796875 -9.96875 C 16.378906 -9.96875 14.109375 -9.738281 11.984375 -9.28125 C 9.867188 -8.820312 8.8125 -8.066406 8.8125 -7.015625 C 8.8125 -5.660156 10.398438 -4.984375 13.578125 -4.984375 Z M 13.578125 -4.984375 "/></g></g></g><g fill="#253636" fill-opacity="1"><g transform="translate(59.733866, 61.50937)"><g><path d="M 11.71875 0.328125 C 8.800781 0.328125 6.398438 -0.859375 4.515625 -3.234375 C 2.640625 -5.609375 1.703125 -8.472656 1.703125 -11.828125 C 1.703125 -15.484375 2.664062 -18.394531 4.59375 -20.5625 C 6.53125 -22.738281 9.269531 -23.828125 12.8125 -23.828125 C 16.351562 -23.828125 19.054688 -22.894531 20.921875 -21.03125 L 20.921875 -32.046875 L 28.328125 -32.046875 L 28.328125 0 L 21.359375 0 L 20.921875 -2.6875 C 18.984375 -0.675781 15.914062 0.328125 11.71875 0.328125 Z M 14.578125 -4.984375 C 16.285156 -4.984375 17.769531 -5.46875 19.03125 -6.4375 C 20.289062 -7.40625 20.921875 -8.601562 20.921875 -10.03125 L 20.921875 -13.6875 C 20.921875 -15.082031 20.328125 -16.234375 19.140625 -17.140625 C 17.953125 -18.054688 16.59375 -18.515625 15.0625 -18.515625 C 13.3125 -18.515625 11.878906 -18.03125 10.765625 -17.0625 C 9.648438 -16.09375 9.09375 -14.550781 9.09375 -12.4375 L 9.09375 -11.828125 C 9.09375 -9.816406 9.617188 -8.171875 10.671875 -6.890625 C 11.734375 -5.617188 13.035156 -4.984375 14.578125 -4.984375 Z M 14.578125 -4.984375 "/></g></g></g><g fill="#253636" fill-opacity="1"><g transform="translate(90.838609, 61.50937)"><g><path d="M 25.359375 -3.015625 C 23.097656 -0.785156 19.71875 0.328125 15.21875 0.328125 C 10.726562 0.328125 7.351562 -0.785156 5.09375 -3.015625 C 2.832031 -5.242188 1.703125 -8.144531 1.703125 -11.71875 C 1.703125 -15.300781 2.832031 -18.210938 5.09375 -20.453125 C 7.351562 -22.703125 10.726562 -23.828125 15.21875 -23.828125 C 19.71875 -23.828125 23.097656 -22.703125 25.359375 -20.453125 C 27.628906 -18.210938 28.765625 -15.300781 28.765625 -11.71875 C 28.765625 -8.144531 27.628906 -5.242188 25.359375 -3.015625 Z M 15.234375 -4.984375 C 17.085938 -4.984375 18.570312 -5.53125 19.6875 -6.625 C 20.800781 -7.71875 21.359375 -9.414062 21.359375 -11.71875 C 21.359375 -14.019531 20.789062 -15.726562 19.65625 -16.84375 C 18.53125 -17.957031 17.054688 -18.515625 15.234375 -18.515625 C 13.441406 -18.515625 11.96875 -17.945312 10.8125 -16.8125 C 9.664062 -15.6875 9.09375 -13.988281 9.09375 -11.71875 C 9.09375 -9.457031 9.664062 -7.769531 10.8125 -6.65625 C 11.96875 -5.539062 13.441406 -4.984375 15.234375 -4.984375 Z M 15.234375 -4.984375 "/></g></g></g><g fill="#253636" fill-opacity="1"><g transform="translate(121.286215, 61.50937)"><g><path d="M 13.46875 0.328125 C 6.789062 0.328125 2.867188 -2.046875 1.703125 -6.796875 L 9.03125 -6.796875 C 9.800781 -5.335938 11.191406 -4.609375 13.203125 -4.609375 C 16.085938 -4.609375 17.53125 -5.316406 17.53125 -6.734375 C 17.53125 -7.359375 17.035156 -7.796875 16.046875 -8.046875 C 14.953125 -8.335938 13.675781 -8.613281 12.21875 -8.875 C 5.3125 -10.039062 1.859375 -12.503906 1.859375 -16.265625 C 1.859375 -21.304688 5.53125 -23.828125 12.875 -23.828125 C 19.113281 -23.828125 22.820312 -21.453125 24 -16.703125 L 16.59375 -16.703125 C 16.375 -17.253906 16.15625 -17.65625 15.9375 -17.90625 C 15.71875 -18.164062 15.363281 -18.394531 14.875 -18.59375 C 14.382812 -18.800781 13.71875 -18.90625 12.875 -18.90625 C 10.46875 -18.90625 9.265625 -18.171875 9.265625 -16.703125 C 9.265625 -16.453125 9.363281 -16.195312 9.5625 -15.9375 C 9.757812 -15.6875 10.066406 -15.46875 10.484375 -15.28125 C 10.910156 -15.101562 11.332031 -14.941406 11.75 -14.796875 C 12.164062 -14.648438 12.691406 -14.503906 13.328125 -14.359375 C 13.972656 -14.210938 14.523438 -14.09375 14.984375 -14 C 15.441406 -13.90625 16.003906 -13.789062 16.671875 -13.65625 C 17.347656 -13.53125 17.832031 -13.453125 18.125 -13.421875 C 22.65625 -12.472656 24.921875 -10.5 24.921875 -7.5 C 24.921875 -5.019531 23.914062 -3.09375 21.90625 -1.71875 C 19.90625 -0.351562 17.09375 0.328125 13.46875 0.328125 Z M 13.46875 0.328125 "/></g></g></g></g></g><g clip-path="url(#3c34bd4e8b)"><g clip-path="url(#a6cb81a914)"><g clip-path="url(#2395024ffc)"><path fill="#c4ff00" d="M 120.296875 151.644531 L 120.300781 151.644531 L 123.894531 61.851562 L 123.875 61.835938 C 123.964844 60.109375 123.179688 58.386719 121.625 57.375 C 120.230469 56.46875 118.5625 56.359375 117.117188 56.90625 L 117.109375 56.902344 L 117.054688 56.929688 C 116.785156 57.035156 116.523438 57.171875 116.273438 57.324219 L 37.183594 97.671875 C 36.300781 98.046875 35.519531 98.679688 34.960938 99.542969 C 33.453125 101.859375 34.109375 104.960938 36.429688 106.464844 L 112.570312 155.945312 C 114.886719 157.453125 117.984375 156.792969 119.492188 154.476562 C 120.058594 153.601562 120.320312 152.613281 120.296875 151.644531 Z M 120.296875 151.644531 " fill-opacity="1" fill-rule="nonzero"/></g></g></g><g fill="#253636" fill-opacity="1"><g transform="translate(133.804347, 132.394464)"><g><path d="M 2.4375 -23.328125 L 6.296875 -23.328125 L 6.296875 -19.453125 L 2.4375 -19.453125 Z M 2.4375 -16.953125 L 6.296875 -16.953125 L 6.296875 0 L 2.4375 0 Z M 2.4375 -16.953125 "/></g></g></g><g fill="#253636" fill-opacity="1"><g transform="translate(142.535062, 132.394464)"><g><path d="M 6.265625 -14.203125 C 6.921875 -15.203125 7.894531 -15.941406 9.1875 -16.421875 C 10.476562 -16.898438 11.628906 -17.140625 12.640625 -17.140625 C 18.140625 -17.140625 20.890625 -14.65625 20.890625 -9.6875 L 20.890625 0 L 17.03125 0 L 17.03125 -8.65625 C 17.03125 -10.675781 16.625 -12.082031 15.8125 -12.875 C 15 -13.675781 13.796875 -14.078125 12.203125 -14.078125 C 10.765625 -14.078125 9.414062 -13.550781 8.15625 -12.5 C 6.894531 -11.445312 6.265625 -10.21875 6.265625 -8.8125 L 6.265625 0 L 2.390625 0 L 2.390625 -16.953125 L 5.90625 -16.953125 Z M 6.265625 -14.203125 "/></g></g></g><g fill="#253636" fill-opacity="1"><g transform="translate(165.418309, 132.394464)"><g><path d="M 10.375 0.234375 C 8.351562 0.234375 6.921875 -0.296875 6.078125 -1.359375 C 5.242188 -2.421875 4.828125 -4.160156 4.828125 -6.578125 L 4.828125 -13.671875 L 1.203125 -13.671875 L 1.203125 -16.953125 L 4.828125 -16.953125 L 4.828125 -22.453125 L 8.6875 -23.5625 L 8.6875 -16.953125 L 13.71875 -16.953125 L 13.71875 -13.671875 L 8.6875 -13.671875 L 8.6875 -6.09375 C 8.6875 -4.851562 8.9375 -4 9.4375 -3.53125 C 9.945312 -3.0625 10.800781 -2.828125 12 -2.828125 C 12.613281 -2.828125 13.09375 -2.867188 13.4375 -2.953125 L 13.4375 0.046875 L 11.796875 0.15625 C 11.640625 0.15625 11.398438 0.160156 11.078125 0.171875 C 10.765625 0.191406 10.53125 0.210938 10.375 0.234375 Z M 10.375 0.234375 "/></g></g></g><g fill="#253636" fill-opacity="1"><g transform="translate(180.926293, 132.394464)"><g><path d="M 19.8125 -4.421875 C 19.625 -3.066406 18.707031 -1.953125 17.0625 -1.078125 C 15.414062 -0.203125 13.554688 0.234375 11.484375 0.234375 C 8.054688 0.234375 5.460938 -0.734375 3.703125 -2.671875 C 2.296875 -4.242188 1.59375 -6.195312 1.59375 -8.53125 C 1.59375 -10.820312 2.285156 -12.75 3.671875 -14.3125 C 5.347656 -16.195312 7.910156 -17.140625 11.359375 -17.140625 C 14.628906 -17.140625 17.03125 -16.351562 18.5625 -14.78125 C 20.09375 -13.21875 20.859375 -11.132812 20.859375 -8.53125 L 20.859375 -6.8125 L 5.625 -6.8125 C 6.175781 -4.15625 8.113281 -2.828125 11.4375 -2.828125 C 13.507812 -2.828125 14.816406 -3.359375 15.359375 -4.421875 Z M 17.1875 -9.6875 C 16.738281 -12.613281 14.785156 -14.078125 11.328125 -14.078125 C 7.898438 -14.078125 5.957031 -12.613281 5.5 -9.6875 Z M 17.1875 -9.6875 "/></g></g></g><g fill="#253636" fill-opacity="1"><g transform="translate(203.171688, 132.394464)"><g><path d="M 6.0625 -6.0625 C 6.0625 -4.175781 6.925781 -3.03125 8.65625 -2.625 L 8.65625 0.125 C 8.175781 0.175781 7.882812 0.203125 7.78125 0.203125 L 7.171875 0.203125 C 5.316406 0.203125 4.019531 -0.414062 3.28125 -1.65625 C 2.550781 -2.894531 2.1875 -4.75 2.1875 -7.21875 L 2.1875 -23.328125 L 6.0625 -23.328125 Z M 6.0625 -6.0625 "/></g></g></g><g fill="#253636" fill-opacity="1"><g transform="translate(213.018659, 132.394464)"><g><path d="M 2.4375 -23.328125 L 6.296875 -23.328125 L 6.296875 -19.453125 L 2.4375 -19.453125 Z M 2.4375 -16.953125 L 6.296875 -16.953125 L 6.296875 0 L 2.4375 0 Z M 2.4375 -16.953125 "/></g></g></g><g fill="#253636" fill-opacity="1"><g transform="translate(221.749374, 132.394464)"><g><path d="M 17.46875 -2.625 C 15.925781 -0.71875 13.425781 0.234375 9.96875 0.234375 C 7.6875 0.234375 5.71875 -0.597656 4.0625 -2.265625 C 2.414062 -3.941406 1.59375 -6.054688 1.59375 -8.609375 C 1.59375 -11.160156 2.4375 -13.21875 4.125 -14.78125 C 5.8125 -16.351562 7.972656 -17.140625 10.609375 -17.140625 C 13.796875 -17.140625 16.082031 -16.160156 17.46875 -14.203125 L 17.828125 -16.953125 L 21.328125 -16.953125 L 21.328125 -1.234375 C 21.328125 1.953125 20.578125 4.320312 19.078125 5.875 C 17.578125 7.4375 15.085938 8.21875 11.609375 8.21875 C 9.535156 8.21875 7.710938 7.757812 6.140625 6.84375 C 4.566406 5.925781 3.503906 4.734375 2.953125 3.265625 L 7.609375 3.265625 C 8.066406 4.515625 9.460938 5.140625 11.796875 5.140625 C 15.578125 5.140625 17.46875 3.492188 17.46875 0.203125 Z M 5.46875 -8.609375 C 5.46875 -6.804688 6.003906 -5.390625 7.078125 -4.359375 C 8.148438 -3.335938 9.472656 -2.828125 11.046875 -2.828125 C 12.691406 -2.828125 14.171875 -3.359375 15.484375 -4.421875 C 16.804688 -5.484375 17.46875 -6.75 17.46875 -8.21875 L 17.46875 -9.09375 C 17.46875 -10.53125 16.847656 -11.71875 15.609375 -12.65625 C 14.367188 -13.601562 12.992188 -14.078125 11.484375 -14.078125 C 9.785156 -14.078125 8.359375 -13.65625 7.203125 -12.8125 C 6.046875 -11.976562 5.46875 -10.660156 5.46875 -8.859375 Z M 5.46875 -8.609375 "/></g></g></g><g fill="#253636" fill-opacity="1"><g transform="translate(245.469813, 132.394464)"><g><path d="M 19.8125 -4.421875 C 19.625 -3.066406 18.707031 -1.953125 17.0625 -1.078125 C 15.414062 -0.203125 13.554688 0.234375 11.484375 0.234375 C 8.054688 0.234375 5.460938 -0.734375 3.703125 -2.671875 C 2.296875 -4.242188 1.59375 -6.195312 1.59375 -8.53125 C 1.59375 -10.820312 2.285156 -12.75 3.671875 -14.3125 C 5.347656 -16.195312 7.910156 -17.140625 11.359375 -17.140625 C 14.628906 -17.140625 17.03125 -16.351562 18.5625 -14.78125 C 20.09375 -13.21875 20.859375 -11.132812 20.859375 -8.53125 L 20.859375 -6.8125 L 5.625 -6.8125 C 6.175781 -4.15625 8.113281 -2.828125 11.4375 -2.828125 C 13.507812 -2.828125 14.816406 -3.359375 15.359375 -4.421875 Z M 17.1875 -9.6875 C 16.738281 -12.613281 14.785156 -14.078125 11.328125 -14.078125 C 7.898438 -14.078125 5.957031 -12.613281 5.5 -9.6875 Z M 17.1875 -9.6875 "/></g></g></g><g fill="#253636" fill-opacity="1"><g transform="translate(267.715209, 132.394464)"><g><path d="M 6.265625 -14.203125 C 6.921875 -15.203125 7.894531 -15.941406 9.1875 -16.421875 C 10.476562 -16.898438 11.628906 -17.140625 12.640625 -17.140625 C 18.140625 -17.140625 20.890625 -14.65625 20.890625 -9.6875 L 20.890625 0 L 17.03125 0 L 17.03125 -8.65625 C 17.03125 -10.675781 16.625 -12.082031 15.8125 -12.875 C 15 -13.675781 13.796875 -14.078125 12.203125 -14.078125 C 10.765625 -14.078125 9.414062 -13.550781 8.15625 -12.5 C 6.894531 -11.445312 6.265625 -10.21875 6.265625 -8.8125 L 6.265625 0 L 2.390625 0 L 2.390625 -16.953125 L 5.90625 -16.953125 Z M 6.265625 -14.203125 "/></g></g></g><g fill="#253636" fill-opacity="1"><g transform="translate(290.598456, 132.394464)"><g><path d="M 10.375 0.234375 C 8.351562 0.234375 6.921875 -0.296875 6.078125 -1.359375 C 5.242188 -2.421875 4.828125 -4.160156 4.828125 -6.578125 L 4.828125 -13.671875 L 1.203125 -13.671875 L 1.203125 -16.953125 L 4.828125 -16.953125 L 4.828125 -22.453125 L 8.6875 -23.5625 L 8.6875 -16.953125 L 13.71875 -16.953125 L 13.71875 -13.671875 L 8.6875 -13.671875 L 8.6875 -6.09375 C 8.6875 -4.851562 8.9375 -4 9.4375 -3.53125 C 9.945312 -3.0625 10.800781 -2.828125 12 -2.828125 C 12.613281 -2.828125 13.09375 -2.867188 13.4375 -2.953125 L 13.4375 0.046875 L 11.796875 0.15625 C 11.640625 0.15625 11.398438 0.160156 11.078125 0.171875 C 10.765625 0.191406 10.53125 0.210938 10.375 0.234375 Z M 10.375 0.234375 "/></g></g></g><g fill="#253636" fill-opacity="1"><g transform="translate(306.106439, 132.394464)"><g><path d="M 19.8125 -4.421875 C 19.625 -3.066406 18.707031 -1.953125 17.0625 -1.078125 C 15.414062 -0.203125 13.554688 0.234375 11.484375 0.234375 C 8.054688 0.234375 5.460938 -0.734375 3.703125 -2.671875 C 2.296875 -4.242188 1.59375 -6.195312 1.59375 -8.53125 C 1.59375 -10.820312 2.285156 -12.75 3.671875 -14.3125 C 5.347656 -16.195312 7.910156 -17.140625 11.359375 -17.140625 C 14.628906 -17.140625 17.03125 -16.351562 18.5625 -14.78125 C 20.09375 -13.21875 20.859375 -11.132812 20.859375 -8.53125 L 20.859375 -6.8125 L 5.625 -6.8125 C 6.175781 -4.15625 8.113281 -2.828125 11.4375 -2.828125 C 13.507812 -2.828125 14.816406 -3.359375 15.359375 -4.421875 Z M 17.1875 -9.6875 C 16.738281 -12.613281 14.785156 -14.078125 11.328125 -14.078125 C 7.898438 -14.078125 5.957031 -12.613281 5.5 -9.6875 Z M 17.1875 -9.6875 "/></g></g></g><g fill="#253636" fill-opacity="1"><g transform="translate(328.351823, 132.394464)"><g><path d="M 18.21875 -5.03125 C 18.21875 -3.1875 17.566406 -1.847656 16.265625 -1.015625 C 14.960938 -0.179688 12.847656 0.234375 9.921875 0.234375 C 5.191406 0.234375 2.414062 -1.382812 1.59375 -4.625 L 5.5 -4.625 C 5.875 -3.90625 6.503906 -3.410156 7.390625 -3.140625 C 8.285156 -2.878906 9.117188 -2.75 9.890625 -2.75 C 11.378906 -2.75 12.507812 -2.867188 13.28125 -3.109375 C 14 -3.316406 14.359375 -3.726562 14.359375 -4.34375 C 14.359375 -5.007812 13.835938 -5.53125 12.796875 -5.90625 C 11.816406 -6.21875 10.460938 -6.546875 8.734375 -6.890625 C 4.160156 -7.773438 1.875 -9.476562 1.875 -12 C 1.875 -13.644531 2.507812 -14.910156 3.78125 -15.796875 C 5.0625 -16.691406 6.953125 -17.140625 9.453125 -17.140625 C 13.859375 -17.140625 16.4375 -15.5625 17.1875 -12.40625 L 13.125 -12.40625 C 12.9375 -13.0625 12.546875 -13.53125 11.953125 -13.8125 C 11.367188 -14.09375 10.535156 -14.234375 9.453125 -14.234375 C 6.972656 -14.234375 5.734375 -13.515625 5.734375 -12.078125 C 5.734375 -11.785156 5.859375 -11.519531 6.109375 -11.28125 C 6.367188 -11.039062 6.785156 -10.832031 7.359375 -10.65625 C 7.929688 -10.488281 8.394531 -10.359375 8.75 -10.265625 C 9.113281 -10.171875 9.679688 -10.054688 10.453125 -9.921875 C 10.523438 -9.898438 10.585938 -9.890625 10.640625 -9.890625 C 13.378906 -9.359375 15.335938 -8.71875 16.515625 -7.96875 C 17.648438 -7.226562 18.21875 -6.25 18.21875 -5.03125 Z M 18.21875 -5.03125 "/></g></g></g></svg>