<svg xmlns="http://www.w3.org/2000/svg" xmlns:xlink="http://www.w3.org/1999/xlink" width="500" zoomAndPan="magnify" viewBox="0 0 375 187.499995" height="250" preserveAspectRatio="xMidYMid meet" version="1.0"><defs><g/><clipPath id="99afa74626"><path d="M 0.472656 42 L 7 42 L 7 51 L 0.472656 51 Z M 0.472656 42 " clip-rule="nonzero"/></clipPath><clipPath id="26fe735fcb"><rect x="0" width="113" y="0" height="54"/></clipPath><clipPath id="55cce3cdd2"><path d="M 84 67 L 140 67 L 140 130 L 84 130 Z M 84 67 " clip-rule="nonzero"/></clipPath><clipPath id="1ea8c9e20b"><path d="M 112.71875 51.585938 L 164.777344 85.417969 L 135.429688 130.574219 L 83.371094 96.746094 Z M 112.71875 51.585938 " clip-rule="nonzero"/></clipPath><clipPath id="c04bb1d6f8"><path d="M 112.71875 51.585938 L 164.777344 85.417969 L 135.429688 130.574219 L 83.371094 96.746094 Z M 112.71875 51.585938 " clip-rule="nonzero"/></clipPath></defs><g transform="matrix(1, 0, 0, 1, 175, 73)"><g clip-path="url(#26fe735fcb)"><g fill="#ffffff" fill-opacity="1"><g transform="translate(0.708814, 19.485018)"><g><path d="M 1.6875 -12.8125 L 6.9375 -12.8125 C 8.851562 -12.8125 10.4375 -12.207031 11.6875 -11 C 12.9375 -9.789062 13.5625 -8.257812 13.5625 -6.40625 C 13.5625 -4.550781 12.929688 -3.019531 11.671875 -1.8125 C 10.410156 -0.601562 8.8125 0 6.875 0 L 1.6875 0 Z M 3.84375 -10.875 L 3.84375 -1.9375 L 6.984375 -1.9375 C 8.242188 -1.9375 9.289062 -2.351562 10.125 -3.1875 C 10.957031 -4.03125 11.375 -5.097656 11.375 -6.390625 C 11.375 -7.679688 10.941406 -8.75 10.078125 -9.59375 C 9.222656 -10.445312 8.160156 -10.875 6.890625 -10.875 Z M 3.84375 -10.875 "/></g></g></g><g fill="#ffffff" fill-opacity="1"><g transform="translate(14.885113, 19.485018)"><g><path d="M 7.390625 0 L 7.390625 -1.1875 C 6.691406 -0.332031 5.617188 0.09375 4.171875 0.09375 C 3.128906 0.09375 2.296875 -0.1875 1.671875 -0.75 C 1.054688 -1.320312 0.75 -2.046875 0.75 -2.921875 C 0.75 -3.816406 1.070312 -4.523438 1.71875 -5.046875 C 2.363281 -5.578125 3.265625 -5.847656 4.421875 -5.859375 L 7.375 -5.859375 L 7.375 -6.140625 C 7.375 -6.765625 7.175781 -7.25 6.78125 -7.59375 C 6.382812 -7.9375 5.804688 -8.109375 5.046875 -8.109375 C 4.109375 -8.109375 3.148438 -7.78125 2.171875 -7.125 L 1.3125 -8.578125 C 2.0625 -9.015625 2.726562 -9.328125 3.3125 -9.515625 C 3.90625 -9.710938 4.632812 -9.8125 5.5 -9.8125 C 6.75 -9.8125 7.710938 -9.507812 8.390625 -8.90625 C 9.078125 -8.300781 9.425781 -7.460938 9.4375 -6.390625 L 9.453125 0 Z M 4.609375 -1.578125 C 5.359375 -1.578125 5.988281 -1.75 6.5 -2.09375 C 7.019531 -2.4375 7.3125 -2.878906 7.375 -3.421875 L 7.375 -4.3125 L 4.734375 -4.3125 C 4.046875 -4.3125 3.535156 -4.210938 3.203125 -4.015625 C 2.878906 -3.816406 2.71875 -3.484375 2.71875 -3.015625 C 2.71875 -2.578125 2.882812 -2.226562 3.21875 -1.96875 C 3.5625 -1.707031 4.023438 -1.578125 4.609375 -1.578125 Z M 4.609375 -1.578125 "/></g></g></g><g fill="#ffffff" fill-opacity="1"><g transform="translate(25.604229, 19.485018)"><g><path d="M 10.828125 -13.578125 L 10.828125 0 L 8.734375 0 L 8.734375 -1.671875 C 8.003906 -0.492188 6.863281 0.09375 5.3125 0.09375 C 3.914062 0.09375 2.785156 -0.363281 1.921875 -1.28125 C 1.066406 -2.207031 0.640625 -3.414062 0.640625 -4.90625 C 0.640625 -6.363281 1.066406 -7.546875 1.921875 -8.453125 C 2.773438 -9.367188 3.890625 -9.828125 5.265625 -9.828125 C 6.828125 -9.828125 7.984375 -9.234375 8.734375 -8.046875 L 8.734375 -13.578125 Z M 3.59375 -2.546875 C 4.144531 -1.960938 4.859375 -1.671875 5.734375 -1.671875 C 6.617188 -1.671875 7.335938 -1.960938 7.890625 -2.546875 C 8.453125 -3.140625 8.734375 -3.898438 8.734375 -4.828125 C 8.734375 -5.765625 8.453125 -6.53125 7.890625 -7.125 C 7.335938 -7.726562 6.617188 -8.03125 5.734375 -8.03125 C 4.859375 -8.03125 4.144531 -7.726562 3.59375 -7.125 C 3.039062 -6.53125 2.757812 -5.765625 2.75 -4.828125 C 2.757812 -3.898438 3.039062 -3.140625 3.59375 -2.546875 Z M 3.59375 -2.546875 "/></g></g></g><g fill="#ffffff" fill-opacity="1"><g transform="translate(38.079378, 19.485018)"><g><path d="M 5.734375 -9.8125 C 7.234375 -9.8125 8.453125 -9.351562 9.390625 -8.4375 C 10.328125 -7.53125 10.796875 -6.335938 10.796875 -4.859375 C 10.796875 -3.398438 10.328125 -2.210938 9.390625 -1.296875 C 8.453125 -0.378906 7.234375 0.078125 5.734375 0.078125 C 4.210938 0.078125 2.984375 -0.378906 2.046875 -1.296875 C 1.109375 -2.210938 0.640625 -3.398438 0.640625 -4.859375 C 0.640625 -6.335938 1.109375 -7.53125 2.046875 -8.4375 C 2.984375 -9.351562 4.210938 -9.8125 5.734375 -9.8125 Z M 5.734375 -8 C 4.847656 -8 4.128906 -7.703125 3.578125 -7.109375 C 3.023438 -6.523438 2.75 -5.769531 2.75 -4.84375 C 2.75 -3.90625 3.023438 -3.144531 3.578125 -2.5625 C 4.128906 -1.976562 4.84375 -1.6875 5.71875 -1.6875 C 6.601562 -1.6875 7.316406 -1.976562 7.859375 -2.5625 C 8.410156 -3.144531 8.6875 -3.90625 8.6875 -4.84375 C 8.6875 -5.769531 8.410156 -6.523438 7.859375 -7.109375 C 7.304688 -7.703125 6.597656 -8 5.734375 -8 Z M 5.734375 -8 "/></g></g></g><g fill="#ffffff" fill-opacity="1"><g transform="translate(49.51188, 19.485018)"><g><path d="M 4.46875 -9.828125 C 5.8125 -9.828125 6.945312 -9.5 7.875 -8.84375 L 7.09375 -7.28125 C 6.164062 -7.851562 5.234375 -8.140625 4.296875 -8.140625 C 3.347656 -8.140625 2.875 -7.816406 2.875 -7.171875 C 2.875 -6.859375 3.050781 -6.597656 3.40625 -6.390625 C 3.757812 -6.179688 4.1875 -6.003906 4.6875 -5.859375 C 5.195312 -5.722656 5.703125 -5.5625 6.203125 -5.375 C 6.710938 -5.1875 7.144531 -4.878906 7.5 -4.453125 C 7.851562 -4.023438 8.03125 -3.476562 8.03125 -2.8125 C 8.03125 -1.875 7.671875 -1.15625 6.953125 -0.65625 C 6.242188 -0.164062 5.359375 0.078125 4.296875 0.078125 C 3.566406 0.078125 2.847656 -0.0390625 2.140625 -0.28125 C 1.441406 -0.519531 0.859375 -0.851562 0.390625 -1.28125 L 1.140625 -2.78125 C 1.546875 -2.414062 2.050781 -2.125 2.65625 -1.90625 C 3.257812 -1.6875 3.835938 -1.578125 4.390625 -1.578125 C 4.867188 -1.578125 5.253906 -1.660156 5.546875 -1.828125 C 5.835938 -1.992188 5.984375 -2.253906 5.984375 -2.609375 C 5.984375 -2.984375 5.804688 -3.28125 5.453125 -3.5 C 5.097656 -3.71875 4.671875 -3.894531 4.171875 -4.03125 C 3.671875 -4.164062 3.171875 -4.320312 2.671875 -4.5 C 2.171875 -4.6875 1.742188 -4.988281 1.390625 -5.40625 C 1.046875 -5.820312 0.875 -6.351562 0.875 -7 C 0.875 -7.925781 1.21875 -8.628906 1.90625 -9.109375 C 2.601562 -9.585938 3.457031 -9.828125 4.46875 -9.828125 Z M 4.46875 -9.828125 "/></g></g></g><g fill="#ffffff" fill-opacity="1"><g transform="translate(0.708814, 35.908482)"><g><path d="M 3.84375 0 L 1.6875 0 L 1.6875 -12.8125 L 3.84375 -12.8125 Z M 3.84375 0 "/></g></g></g><g fill="#ffffff" fill-opacity="1"><g transform="translate(6.233002, 35.908482)"><g><path d="M 7.25 -9.8125 C 8.382812 -9.8125 9.269531 -9.476562 9.90625 -8.8125 C 10.550781 -8.144531 10.875 -7.226562 10.875 -6.0625 L 10.875 0 L 8.765625 0 L 8.765625 -5.46875 C 8.765625 -6.195312 8.554688 -6.769531 8.140625 -7.1875 C 7.722656 -7.613281 7.148438 -7.828125 6.421875 -7.828125 C 5.640625 -7.816406 5 -7.566406 4.5 -7.078125 C 4.007812 -6.585938 3.726562 -5.953125 3.65625 -5.171875 L 3.65625 0 L 1.5625 0 L 1.5625 -9.734375 L 3.65625 -9.734375 L 3.65625 -7.875 C 4.3125 -9.164062 5.507812 -9.8125 7.25 -9.8125 Z M 7.25 -9.8125 "/></g></g></g><g fill="#ffffff" fill-opacity="1"><g transform="translate(18.360597, 35.908482)"><g><path d="M 6.53125 -2.234375 L 7.0625 -0.625 C 6.257812 -0.144531 5.457031 0.09375 4.65625 0.09375 C 3.863281 0.09375 3.210938 -0.140625 2.703125 -0.609375 C 2.191406 -1.085938 1.9375 -1.800781 1.9375 -2.75 L 1.9375 -7.796875 L 0.5625 -7.796875 L 0.5625 -9.375 L 1.9375 -9.375 L 1.9375 -12.046875 L 4.03125 -12.046875 L 4.03125 -9.375 L 6.890625 -9.375 L 6.890625 -7.796875 L 4.03125 -7.796875 L 4.03125 -3.125 C 4.03125 -2.632812 4.113281 -2.289062 4.28125 -2.09375 C 4.445312 -1.90625 4.707031 -1.8125 5.0625 -1.8125 C 5.457031 -1.8125 5.945312 -1.953125 6.53125 -2.234375 Z M 6.53125 -2.234375 "/></g></g></g><g fill="#ffffff" fill-opacity="1"><g transform="translate(25.805439, 35.908482)"><g><path d="M 5.5625 -9.8125 C 7.226562 -9.8125 8.4375 -9.304688 9.1875 -8.296875 C 9.9375 -7.285156 10.25 -5.875 10.125 -4.0625 L 2.765625 -4.0625 C 2.929688 -3.300781 3.28125 -2.703125 3.8125 -2.265625 C 4.351562 -1.835938 5.007812 -1.625 5.78125 -1.625 C 6.875 -1.625 7.789062 -2.003906 8.53125 -2.765625 L 9.640625 -1.578125 C 8.640625 -0.472656 7.296875 0.078125 5.609375 0.078125 C 4.109375 0.078125 2.90625 -0.375 2 -1.28125 C 1.09375 -2.195312 0.640625 -3.382812 0.640625 -4.84375 C 0.640625 -6.3125 1.097656 -7.5 2.015625 -8.40625 C 2.929688 -9.320312 4.113281 -9.789062 5.5625 -9.8125 Z M 2.71875 -5.59375 L 8.28125 -5.59375 C 8.25 -6.375 7.988281 -6.988281 7.5 -7.4375 C 7.007812 -7.894531 6.367188 -8.125 5.578125 -8.125 C 4.804688 -8.125 4.164062 -7.894531 3.65625 -7.4375 C 3.15625 -6.988281 2.84375 -6.375 2.71875 -5.59375 Z M 2.71875 -5.59375 "/></g></g></g><g fill="#ffffff" fill-opacity="1"><g transform="translate(36.561135, 35.908482)"><g><path d="M 3.75 0 L 1.640625 0 L 1.640625 -13.578125 L 3.75 -13.578125 Z M 3.75 0 "/></g></g></g><g fill="#ffffff" fill-opacity="1"><g transform="translate(41.957273, 35.908482)"><g><path d="M 1.71875 -13.4375 C 1.945312 -13.675781 2.238281 -13.796875 2.59375 -13.796875 C 2.945312 -13.796875 3.238281 -13.675781 3.46875 -13.4375 C 3.707031 -13.195312 3.828125 -12.890625 3.828125 -12.515625 C 3.828125 -12.148438 3.707031 -11.847656 3.46875 -11.609375 C 3.238281 -11.367188 2.945312 -11.25 2.59375 -11.25 C 2.238281 -11.25 1.945312 -11.367188 1.71875 -11.609375 C 1.488281 -11.847656 1.375 -12.148438 1.375 -12.515625 C 1.375 -12.890625 1.488281 -13.195312 1.71875 -13.4375 Z M 3.640625 0 L 1.5625 0 L 1.5625 -9.734375 L 3.640625 -9.734375 Z M 3.640625 0 "/></g></g></g><g fill="#ffffff" fill-opacity="1"><g transform="translate(47.152201, 35.908482)"><g><path d="M 10.34375 -9.734375 L 10.34375 -0.953125 C 10.34375 0.441406 9.882812 1.550781 8.96875 2.375 C 8.050781 3.195312 6.820312 3.609375 5.28125 3.609375 C 3.84375 3.609375 2.5 3.179688 1.25 2.328125 L 2.140625 0.8125 C 3.085938 1.507812 4.109375 1.859375 5.203125 1.859375 C 6.128906 1.859375 6.867188 1.609375 7.421875 1.109375 C 7.972656 0.609375 8.25 -0.0546875 8.25 -0.890625 L 8.25 -2.125 C 7.570312 -1.019531 6.5 -0.46875 5.03125 -0.46875 C 3.71875 -0.46875 2.65625 -0.898438 1.84375 -1.765625 C 1.039062 -2.640625 0.640625 -3.773438 0.640625 -5.171875 C 0.640625 -6.554688 1.035156 -7.671875 1.828125 -8.515625 C 2.617188 -9.359375 3.660156 -9.789062 4.953125 -9.8125 C 6.441406 -9.820312 7.539062 -9.269531 8.25 -8.15625 L 8.25 -9.734375 Z M 5.453125 -2.125 C 6.265625 -2.125 6.929688 -2.40625 7.453125 -2.96875 C 7.984375 -3.53125 8.25 -4.25 8.25 -5.125 C 8.25 -6 7.988281 -6.710938 7.46875 -7.265625 C 6.957031 -7.828125 6.285156 -8.109375 5.453125 -8.109375 C 4.617188 -8.109375 3.941406 -7.828125 3.421875 -7.265625 C 2.898438 -6.710938 2.628906 -6 2.609375 -5.125 C 2.628906 -4.25 2.894531 -3.53125 3.40625 -2.96875 C 3.925781 -2.40625 4.609375 -2.125 5.453125 -2.125 Z M 5.453125 -2.125 "/></g></g></g><g fill="#ffffff" fill-opacity="1"><g transform="translate(58.859082, 35.908482)"><g><path d="M 5.5625 -9.8125 C 7.226562 -9.8125 8.4375 -9.304688 9.1875 -8.296875 C 9.9375 -7.285156 10.25 -5.875 10.125 -4.0625 L 2.765625 -4.0625 C 2.929688 -3.300781 3.28125 -2.703125 3.8125 -2.265625 C 4.351562 -1.835938 5.007812 -1.625 5.78125 -1.625 C 6.875 -1.625 7.789062 -2.003906 8.53125 -2.765625 L 9.640625 -1.578125 C 8.640625 -0.472656 7.296875 0.078125 5.609375 0.078125 C 4.109375 0.078125 2.90625 -0.375 2 -1.28125 C 1.09375 -2.195312 0.640625 -3.382812 0.640625 -4.84375 C 0.640625 -6.3125 1.097656 -7.5 2.015625 -8.40625 C 2.929688 -9.320312 4.113281 -9.789062 5.5625 -9.8125 Z M 2.71875 -5.59375 L 8.28125 -5.59375 C 8.25 -6.375 7.988281 -6.988281 7.5 -7.4375 C 7.007812 -7.894531 6.367188 -8.125 5.578125 -8.125 C 4.804688 -8.125 4.164062 -7.894531 3.65625 -7.4375 C 3.15625 -6.988281 2.84375 -6.375 2.71875 -5.59375 Z M 2.71875 -5.59375 "/></g></g></g><g fill="#ffffff" fill-opacity="1"><g transform="translate(69.614778, 35.908482)"><g><path d="M 7.25 -9.8125 C 8.382812 -9.8125 9.269531 -9.476562 9.90625 -8.8125 C 10.550781 -8.144531 10.875 -7.226562 10.875 -6.0625 L 10.875 0 L 8.765625 0 L 8.765625 -5.46875 C 8.765625 -6.195312 8.554688 -6.769531 8.140625 -7.1875 C 7.722656 -7.613281 7.148438 -7.828125 6.421875 -7.828125 C 5.640625 -7.816406 5 -7.566406 4.5 -7.078125 C 4.007812 -6.585938 3.726562 -5.953125 3.65625 -5.171875 L 3.65625 0 L 1.5625 0 L 1.5625 -9.734375 L 3.65625 -9.734375 L 3.65625 -7.875 C 4.3125 -9.164062 5.507812 -9.8125 7.25 -9.8125 Z M 7.25 -9.8125 "/></g></g></g><g fill="#ffffff" fill-opacity="1"><g transform="translate(81.742373, 35.908482)"><g><path d="M 6.53125 -2.234375 L 7.0625 -0.625 C 6.257812 -0.144531 5.457031 0.09375 4.65625 0.09375 C 3.863281 0.09375 3.210938 -0.140625 2.703125 -0.609375 C 2.191406 -1.085938 1.9375 -1.800781 1.9375 -2.75 L 1.9375 -7.796875 L 0.5625 -7.796875 L 0.5625 -9.375 L 1.9375 -9.375 L 1.9375 -12.046875 L 4.03125 -12.046875 L 4.03125 -9.375 L 6.890625 -9.375 L 6.890625 -7.796875 L 4.03125 -7.796875 L 4.03125 -3.125 C 4.03125 -2.632812 4.113281 -2.289062 4.28125 -2.09375 C 4.445312 -1.90625 4.707031 -1.8125 5.0625 -1.8125 C 5.457031 -1.8125 5.945312 -1.953125 6.53125 -2.234375 Z M 6.53125 -2.234375 "/></g></g></g><g fill="#ffffff" fill-opacity="1"><g transform="translate(89.187215, 35.908482)"><g><path d="M 5.5625 -9.8125 C 7.226562 -9.8125 8.4375 -9.304688 9.1875 -8.296875 C 9.9375 -7.285156 10.25 -5.875 10.125 -4.0625 L 2.765625 -4.0625 C 2.929688 -3.300781 3.28125 -2.703125 3.8125 -2.265625 C 4.351562 -1.835938 5.007812 -1.625 5.78125 -1.625 C 6.875 -1.625 7.789062 -2.003906 8.53125 -2.765625 L 9.640625 -1.578125 C 8.640625 -0.472656 7.296875 0.078125 5.609375 0.078125 C 4.109375 0.078125 2.90625 -0.375 2 -1.28125 C 1.09375 -2.195312 0.640625 -3.382812 0.640625 -4.84375 C 0.640625 -6.3125 1.097656 -7.5 2.015625 -8.40625 C 2.929688 -9.320312 4.113281 -9.789062 5.5625 -9.8125 Z M 2.71875 -5.59375 L 8.28125 -5.59375 C 8.25 -6.375 7.988281 -6.988281 7.5 -7.4375 C 7.007812 -7.894531 6.367188 -8.125 5.578125 -8.125 C 4.804688 -8.125 4.164062 -7.894531 3.65625 -7.4375 C 3.15625 -6.988281 2.84375 -6.375 2.71875 -5.59375 Z M 2.71875 -5.59375 "/></g></g></g><g fill="#ffffff" fill-opacity="1"><g transform="translate(99.942911, 35.908482)"><g><path d="M 4.46875 -9.828125 C 5.8125 -9.828125 6.945312 -9.5 7.875 -8.84375 L 7.09375 -7.28125 C 6.164062 -7.851562 5.234375 -8.140625 4.296875 -8.140625 C 3.347656 -8.140625 2.875 -7.816406 2.875 -7.171875 C 2.875 -6.859375 3.050781 -6.597656 3.40625 -6.390625 C 3.757812 -6.179688 4.1875 -6.003906 4.6875 -5.859375 C 5.195312 -5.722656 5.703125 -5.5625 6.203125 -5.375 C 6.710938 -5.1875 7.144531 -4.878906 7.5 -4.453125 C 7.851562 -4.023438 8.03125 -3.476562 8.03125 -2.8125 C 8.03125 -1.875 7.671875 -1.15625 6.953125 -0.65625 C 6.242188 -0.164062 5.359375 0.078125 4.296875 0.078125 C 3.566406 0.078125 2.847656 -0.0390625 2.140625 -0.28125 C 1.441406 -0.519531 0.859375 -0.851562 0.390625 -1.28125 L 1.140625 -2.78125 C 1.546875 -2.414062 2.050781 -2.125 2.65625 -1.90625 C 3.257812 -1.6875 3.835938 -1.578125 4.390625 -1.578125 C 4.867188 -1.578125 5.253906 -1.660156 5.546875 -1.828125 C 5.835938 -1.992188 5.984375 -2.253906 5.984375 -2.609375 C 5.984375 -2.984375 5.804688 -3.28125 5.453125 -3.5 C 5.097656 -3.71875 4.671875 -3.894531 4.171875 -4.03125 C 3.671875 -4.164062 3.171875 -4.320312 2.671875 -4.5 C 2.171875 -4.6875 1.742188 -4.988281 1.390625 -5.40625 C 1.046875 -5.820312 0.875 -6.351562 0.875 -7 C 0.875 -7.925781 1.21875 -8.628906 1.90625 -9.109375 C 2.601562 -9.585938 3.457031 -9.828125 4.46875 -9.828125 Z M 4.46875 -9.828125 "/></g></g></g><g fill="#ffffff" fill-opacity="1"><g transform="translate(108.540155, 35.908482)"><g><path d="M 1.171875 -1.90625 C 1.390625 -2.132812 1.660156 -2.25 1.984375 -2.25 C 2.316406 -2.25 2.59375 -2.132812 2.8125 -1.90625 C 3.03125 -1.6875 3.140625 -1.40625 3.140625 -1.0625 C 3.140625 -0.707031 3.03125 -0.410156 2.8125 -0.171875 C 2.59375 0.0546875 2.316406 0.171875 1.984375 0.171875 C 1.660156 0.171875 1.390625 0.0546875 1.171875 -0.171875 C 0.953125 -0.410156 0.84375 -0.707031 0.84375 -1.0625 C 0.84375 -1.40625 0.953125 -1.6875 1.171875 -1.90625 Z M 1.171875 -1.90625 "/></g></g></g><g clip-path="url(#99afa74626)"><g fill="#ffffff" fill-opacity="1"><g transform="translate(0.708814, 50.465252)"><g><path d="M 5.90625 -6.71875 L 3.4375 -6.71875 L 3.4375 0 L 2.578125 0 L 2.578125 -6.71875 L 0.125 -6.71875 L 0.125 -7.546875 L 5.90625 -7.546875 Z M 5.90625 -6.71875 "/></g></g></g></g><g fill="#ffffff" fill-opacity="1"><g transform="translate(6.722859, 50.465252)"><g><path d="M 3.265625 -5.703125 C 4.160156 -5.710938 4.835938 -5.425781 5.296875 -4.84375 C 5.753906 -4.269531 5.960938 -3.492188 5.921875 -2.515625 L 1.28125 -2.515625 C 1.351562 -1.960938 1.578125 -1.519531 1.953125 -1.1875 C 2.328125 -0.863281 2.789062 -0.703125 3.34375 -0.703125 C 4.0625 -0.703125 4.644531 -0.9375 5.09375 -1.40625 L 5.5625 -0.921875 C 5 -0.285156 4.238281 0.03125 3.28125 0.03125 C 2.445312 0.03125 1.765625 -0.234375 1.234375 -0.765625 C 0.710938 -1.296875 0.453125 -1.984375 0.453125 -2.828125 C 0.453125 -3.679688 0.710938 -4.375 1.234375 -4.90625 C 1.765625 -5.4375 2.441406 -5.703125 3.265625 -5.703125 Z M 1.28125 -3.203125 L 5.171875 -3.203125 C 5.140625 -3.742188 4.953125 -4.175781 4.609375 -4.5 C 4.265625 -4.820312 3.816406 -4.984375 3.265625 -4.984375 C 2.722656 -4.984375 2.269531 -4.820312 1.90625 -4.5 C 1.550781 -4.175781 1.34375 -3.742188 1.28125 -3.203125 Z M 1.28125 -3.203125 "/></g></g></g><g fill="#ffffff" fill-opacity="1"><g transform="translate(13.060235, 50.465252)"><g><path d="M 3.265625 -5.703125 C 4.179688 -5.710938 4.910156 -5.429688 5.453125 -4.859375 L 4.984375 -4.265625 C 4.523438 -4.703125 3.960938 -4.921875 3.296875 -4.921875 C 2.710938 -4.921875 2.226562 -4.726562 1.84375 -4.34375 C 1.46875 -3.957031 1.28125 -3.453125 1.28125 -2.828125 C 1.28125 -2.210938 1.46875 -1.707031 1.84375 -1.3125 C 2.226562 -0.925781 2.710938 -0.734375 3.296875 -0.734375 C 4.054688 -0.734375 4.644531 -0.976562 5.0625 -1.46875 L 5.546875 -0.953125 C 5.003906 -0.296875 4.242188 0.03125 3.265625 0.03125 C 2.441406 0.03125 1.765625 -0.234375 1.234375 -0.765625 C 0.710938 -1.296875 0.453125 -1.984375 0.453125 -2.828125 C 0.453125 -3.671875 0.710938 -4.359375 1.234375 -4.890625 C 1.765625 -5.429688 2.441406 -5.703125 3.265625 -5.703125 Z M 3.265625 -5.703125 "/></g></g></g><g fill="#ffffff" fill-opacity="1"><g transform="translate(19.106608, 50.465252)"><g><path d="M 4.125 -5.71875 C 4.800781 -5.71875 5.328125 -5.519531 5.703125 -5.125 C 6.085938 -4.726562 6.28125 -4.1875 6.28125 -3.5 L 6.28125 0 L 5.4375 0 L 5.4375 -3.28125 C 5.4375 -3.78125 5.296875 -4.171875 5.015625 -4.453125 C 4.734375 -4.734375 4.34375 -4.875 3.84375 -4.875 C 3.238281 -4.863281 2.765625 -4.664062 2.421875 -4.28125 C 2.085938 -3.90625 1.921875 -3.410156 1.921875 -2.796875 L 1.921875 0 L 1.078125 0 L 1.078125 -8 L 1.921875 -8 L 1.921875 -4.40625 C 2.296875 -5.257812 3.03125 -5.695312 4.125 -5.71875 Z M 4.125 -5.71875 "/></g></g></g></g></g><g clip-path="url(#55cce3cdd2)"><g clip-path="url(#1ea8c9e20b)"><g clip-path="url(#c04bb1d6f8)"><path fill="#23b5b5" d="M 137.433594 125.902344 L 137.4375 125.902344 L 139.636719 70.917969 L 139.625 70.910156 C 139.679688 69.851562 139.199219 68.796875 138.246094 68.175781 C 137.394531 67.621094 136.371094 67.554688 135.488281 67.890625 L 135.480469 67.886719 L 135.449219 67.902344 C 135.28125 67.96875 135.125 68.050781 134.972656 68.148438 L 86.539062 92.851562 C 86 93.085938 85.519531 93.46875 85.175781 94 C 84.253906 95.417969 84.65625 97.316406 86.078125 98.238281 L 132.703125 128.539062 C 134.121094 129.460938 136.019531 129.058594 136.941406 127.636719 C 137.289062 127.101562 137.449219 126.5 137.433594 125.902344 Z M 137.433594 125.902344 " fill-opacity="1" fill-rule="nonzero"/></g></g></g></svg>