<svg xmlns="http://www.w3.org/2000/svg" xmlns:xlink="http://www.w3.org/1999/xlink" width="500" zoomAndPan="magnify" viewBox="0 0 375 187.499995" height="250" preserveAspectRatio="xMidYMid meet" version="1.0"><defs><g/><clipPath id="11b0fbda42"><path d="M 0.515625 0.421875 L 195.59375 0.421875 L 195.59375 85 L 0.515625 85 Z M 0.515625 0.421875 " clip-rule="nonzero"/></clipPath><clipPath id="fa376863e6"><rect x="0" width="196" y="0" height="85"/></clipPath><clipPath id="102b0239d3"><path d="M 0.515625 78 L 46 78 L 46 108.371094 L 0.515625 108.371094 Z M 0.515625 78 " clip-rule="nonzero"/></clipPath><clipPath id="60cfac4eab"><path d="M 0.515625 11 L 12 11 L 12 24 L 0.515625 24 Z M 0.515625 11 " clip-rule="nonzero"/></clipPath><clipPath id="ce7e5517c1"><rect x="0" width="46" y="0" height="31"/></clipPath><clipPath id="db30192b74"><rect x="0" width="196" y="0" height="109"/></clipPath><clipPath id="363f63b3ad"><path d="M 34 56 L 124 56 L 124 157 L 34 157 Z M 34 56 " clip-rule="nonzero"/></clipPath><clipPath id="5954a31037"><path d="M 79.9375 30.285156 L 164.609375 85.308594 L 116.921875 158.691406 L 32.25 103.667969 Z M 79.9375 30.285156 " clip-rule="nonzero"/></clipPath><clipPath id="21faada0dc"><path d="M 79.9375 30.285156 L 164.609375 85.308594 L 116.921875 158.691406 L 32.25 103.667969 Z M 79.9375 30.285156 " clip-rule="nonzero"/></clipPath></defs><g transform="matrix(1, 0, 0, 1, 129, 52)"><g clip-path="url(#db30192b74)"><g clip-path="url(#11b0fbda42)"><g transform="matrix(1, 0, 0, 1, -0.000000000000028422, -0.000000000000014211)"><g clip-path="url(#fa376863e6)"><g fill="#ffffff" fill-opacity="1"><g transform="translate(0.626138, 40.847345)"><g><path d="M 1.796875 0 L 1.796875 -20.65625 L 9.921875 -20.65625 C 13.546875 -20.65625 16.3125 -19.523438 18.21875 -17.265625 C 19.769531 -15.378906 20.546875 -13.070312 20.546875 -10.34375 C 20.546875 -7.726562 19.769531 -5.46875 18.21875 -3.5625 C 16.28125 -1.1875 13.515625 0 9.921875 0 Z M 6.5625 -3.59375 L 10.546875 -3.59375 C 12.242188 -3.59375 13.539062 -4.191406 14.4375 -5.390625 C 15.332031 -6.597656 15.78125 -8.25 15.78125 -10.34375 C 15.78125 -14.8125 14.035156 -17.046875 10.546875 -17.046875 L 6.5625 -17.046875 Z M 6.5625 -3.59375 "/></g></g></g><g fill="#ffffff" fill-opacity="1"><g transform="translate(22.25352, 40.847345)"><g><path d="M 6.21875 0.21875 C 4.800781 0.21875 3.566406 -0.171875 2.515625 -0.953125 C 1.472656 -1.734375 0.953125 -2.863281 0.953125 -4.34375 C 0.953125 -5.40625 1.289062 -6.289062 1.96875 -7 C 2.65625 -7.71875 3.609375 -8.226562 4.828125 -8.53125 C 6.054688 -8.84375 7.21875 -9.050781 8.3125 -9.15625 C 9.40625 -9.257812 10.671875 -9.3125 12.109375 -9.3125 C 12.109375 -10.28125 11.847656 -10.957031 11.328125 -11.34375 C 10.804688 -11.738281 10.078125 -11.9375 9.140625 -11.9375 C 7.210938 -11.9375 6.210938 -11.425781 6.140625 -10.40625 L 1.828125 -10.40625 C 2.347656 -13.707031 4.71875 -15.359375 8.9375 -15.359375 C 11.820312 -15.359375 13.863281 -14.78125 15.0625 -13.625 C 16.269531 -12.46875 16.875 -10.664062 16.875 -8.21875 L 16.875 0 L 12.421875 0 L 12.109375 -1.65625 C 11.117188 -0.40625 9.15625 0.21875 6.21875 0.21875 Z M 8.75 -3.21875 C 9.15625 -3.21875 9.707031 -3.332031 10.40625 -3.5625 C 11.113281 -3.800781 11.679688 -4.097656 12.109375 -4.453125 L 12.109375 -6.421875 C 10.554688 -6.421875 9.097656 -6.273438 7.734375 -5.984375 C 6.367188 -5.691406 5.6875 -5.203125 5.6875 -4.515625 C 5.6875 -3.648438 6.707031 -3.21875 8.75 -3.21875 Z M 8.75 -3.21875 "/></g></g></g><g fill="#ffffff" fill-opacity="1"><g transform="translate(40.388057, 40.847345)"><g><path d="M 7.546875 0.21875 C 5.671875 0.21875 4.125 -0.546875 2.90625 -2.078125 C 1.695312 -3.609375 1.09375 -5.457031 1.09375 -7.625 C 1.09375 -9.976562 1.710938 -11.851562 2.953125 -13.25 C 4.203125 -14.65625 5.96875 -15.359375 8.25 -15.359375 C 10.539062 -15.359375 12.285156 -14.753906 13.484375 -13.546875 L 13.484375 -20.65625 L 18.25 -20.65625 L 18.25 0 L 13.765625 0 L 13.484375 -1.734375 C 12.234375 -0.429688 10.253906 0.21875 7.546875 0.21875 Z M 9.390625 -3.21875 C 10.492188 -3.21875 11.453125 -3.523438 12.265625 -4.140625 C 13.078125 -4.765625 13.484375 -5.535156 13.484375 -6.453125 L 13.484375 -8.828125 C 13.484375 -9.722656 13.097656 -10.460938 12.328125 -11.046875 C 11.566406 -11.640625 10.691406 -11.9375 9.703125 -11.9375 C 8.578125 -11.9375 7.65625 -11.625 6.9375 -11 C 6.21875 -10.375 5.859375 -9.378906 5.859375 -8.015625 L 5.859375 -7.625 C 5.859375 -6.332031 6.195312 -5.273438 6.875 -4.453125 C 7.5625 -3.628906 8.398438 -3.21875 9.390625 -3.21875 Z M 9.390625 -3.21875 "/></g></g></g><g fill="#ffffff" fill-opacity="1"><g transform="translate(60.427791, 40.847345)"><g><path d="M 16.34375 -1.9375 C 14.882812 -0.5 12.707031 0.21875 9.8125 0.21875 C 6.914062 0.21875 4.738281 -0.5 3.28125 -1.9375 C 1.820312 -3.375 1.09375 -5.242188 1.09375 -7.546875 C 1.09375 -9.859375 1.820312 -11.738281 3.28125 -13.1875 C 4.738281 -14.632812 6.914062 -15.359375 9.8125 -15.359375 C 12.707031 -15.359375 14.882812 -14.632812 16.34375 -13.1875 C 17.800781 -11.738281 18.53125 -9.859375 18.53125 -7.546875 C 18.53125 -5.242188 17.800781 -3.375 16.34375 -1.9375 Z M 9.8125 -3.21875 C 11.007812 -3.21875 11.96875 -3.566406 12.6875 -4.265625 C 13.40625 -4.972656 13.765625 -6.066406 13.765625 -7.546875 C 13.765625 -9.035156 13.398438 -10.140625 12.671875 -10.859375 C 11.941406 -11.578125 10.988281 -11.9375 9.8125 -11.9375 C 8.65625 -11.9375 7.707031 -11.566406 6.96875 -10.828125 C 6.226562 -10.097656 5.859375 -9.003906 5.859375 -7.546875 C 5.859375 -6.085938 6.226562 -5 6.96875 -4.28125 C 7.707031 -3.570312 8.65625 -3.21875 9.8125 -3.21875 Z M 9.8125 -3.21875 "/></g></g></g><g fill="#ffffff" fill-opacity="1"><g transform="translate(80.044146, 40.847345)"><g><path d="M 8.6875 0.21875 C 4.375 0.21875 1.84375 -1.3125 1.09375 -4.375 L 5.828125 -4.375 C 6.316406 -3.4375 7.207031 -2.96875 8.5 -2.96875 C 10.363281 -2.96875 11.296875 -3.425781 11.296875 -4.34375 C 11.296875 -4.738281 10.976562 -5.019531 10.34375 -5.1875 C 9.632812 -5.375 8.8125 -5.550781 7.875 -5.71875 C 3.425781 -6.46875 1.203125 -8.054688 1.203125 -10.484375 C 1.203125 -13.734375 3.566406 -15.359375 8.296875 -15.359375 C 12.316406 -15.359375 14.703125 -13.828125 15.453125 -10.765625 L 10.6875 -10.765625 C 10.550781 -11.117188 10.410156 -11.378906 10.265625 -11.546875 C 10.128906 -11.710938 9.898438 -11.859375 9.578125 -11.984375 C 9.265625 -12.109375 8.835938 -12.171875 8.296875 -12.171875 C 6.742188 -12.171875 5.96875 -11.703125 5.96875 -10.765625 C 5.96875 -10.597656 6.03125 -10.429688 6.15625 -10.265625 C 6.289062 -10.109375 6.492188 -9.96875 6.765625 -9.84375 C 7.035156 -9.726562 7.304688 -9.625 7.578125 -9.53125 C 7.847656 -9.4375 8.1875 -9.34375 8.59375 -9.25 C 9.007812 -9.15625 9.363281 -9.078125 9.65625 -9.015625 C 9.945312 -8.960938 10.3125 -8.894531 10.75 -8.8125 C 11.1875 -8.726562 11.5 -8.671875 11.6875 -8.640625 C 14.601562 -8.035156 16.0625 -6.765625 16.0625 -4.828125 C 16.0625 -3.234375 15.410156 -1.992188 14.109375 -1.109375 C 12.816406 -0.222656 11.007812 0.21875 8.6875 0.21875 Z M 8.6875 0.21875 "/></g></g></g><g fill="#ffffff" fill-opacity="1"><g transform="translate(0.626138, 72.589107)"><g><path d="M 1.828125 0 L 1.828125 -20.65625 L 6.59375 -20.65625 L 6.59375 0 Z M 1.828125 0 "/></g></g></g><g fill="#ffffff" fill-opacity="1"><g transform="translate(9.058336, 72.589107)"><g><path d="M 1.796875 0 L 1.796875 -15 L 6.28125 -15 L 6.5625 -13.59375 C 7.695312 -14.769531 9.367188 -15.359375 11.578125 -15.359375 C 13.648438 -15.359375 15.257812 -14.773438 16.40625 -13.609375 C 17.5625 -12.441406 18.140625 -10.800781 18.140625 -8.6875 L 18.140625 0 L 13.375 0 L 13.375 -8.15625 C 13.375 -9.539062 13.101562 -10.515625 12.5625 -11.078125 C 12.019531 -11.648438 11.222656 -11.9375 10.171875 -11.9375 C 9.296875 -11.9375 8.472656 -11.59375 7.703125 -10.90625 C 6.941406 -10.226562 6.5625 -9.441406 6.5625 -8.546875 L 6.5625 0 Z M 1.796875 0 "/></g></g></g><g fill="#ffffff" fill-opacity="1"><g transform="translate(28.6394, 72.589107)"><g><path d="M 8.78125 0.21875 C 6.945312 0.21875 5.625 -0.316406 4.8125 -1.390625 C 4 -2.460938 3.59375 -4.09375 3.59375 -6.28125 L 3.59375 -11.40625 L 0.734375 -11.40625 L 0.734375 -15 L 3.59375 -15 L 3.59375 -19.484375 L 8.40625 -20.75 L 8.40625 -15 L 12.171875 -15 L 12.171875 -11.40625 L 8.40625 -11.40625 L 8.40625 -5.859375 C 8.40625 -4.234375 9.296875 -3.421875 11.078125 -3.421875 C 11.296875 -3.421875 11.660156 -3.445312 12.171875 -3.5 L 12.171875 -0.140625 C 11.515625 0.0234375 10.382812 0.144531 8.78125 0.21875 Z M 8.78125 0.21875 "/></g></g></g><g fill="#ffffff" fill-opacity="1"><g transform="translate(42.081532, 72.589107)"><g><path d="M 9.703125 0.21875 C 6.835938 0.21875 4.6875 -0.507812 3.25 -1.96875 C 1.8125 -3.4375 1.09375 -5.296875 1.09375 -7.546875 C 1.09375 -9.859375 1.789062 -11.738281 3.1875 -13.1875 C 4.59375 -14.632812 6.726562 -15.359375 9.59375 -15.359375 C 12.445312 -15.359375 14.550781 -14.632812 15.90625 -13.1875 C 17.257812 -11.738281 17.9375 -9.859375 17.9375 -7.546875 L 17.9375 -5.828125 L 5.859375 -5.828125 C 6.003906 -4.835938 6.382812 -4.15625 7 -3.78125 C 7.625 -3.40625 8.515625 -3.21875 9.671875 -3.21875 C 11.054688 -3.21875 11.960938 -3.660156 12.390625 -4.546875 L 17.1875 -4.546875 C 17.019531 -3.179688 16.226562 -2.046875 14.8125 -1.140625 C 13.40625 -0.234375 11.703125 0.21875 9.703125 0.21875 Z M 5.890625 -9.171875 L 13.234375 -9.171875 C 12.898438 -10.253906 12.453125 -10.984375 11.890625 -11.359375 C 11.328125 -11.742188 10.550781 -11.9375 9.5625 -11.9375 C 8.570312 -11.9375 7.796875 -11.742188 7.234375 -11.359375 C 6.671875 -10.984375 6.222656 -10.253906 5.890625 -9.171875 Z M 5.890625 -9.171875 "/></g></g></g><g fill="#ffffff" fill-opacity="1"><g transform="translate(60.921687, 72.589107)"><g><path d="M 6.5625 0.21875 C 3.269531 0.21875 1.625 -2.003906 1.625 -6.453125 L 1.625 -20.65625 L 6.390625 -20.65625 L 6.390625 -5.359375 C 6.390625 -4.046875 7.082031 -3.332031 8.46875 -3.21875 L 8.46875 0.078125 C 7.925781 0.171875 7.289062 0.21875 6.5625 0.21875 Z M 6.5625 0.21875 "/></g></g></g><g fill="#ffffff" fill-opacity="1"><g transform="translate(70.235936, 72.589107)"><g><path d="M 1.875 -16.09375 L 1.875 -20.65625 L 6.53125 -20.65625 L 6.53125 -16.09375 Z M 1.796875 0 L 1.796875 -15 L 6.5625 -15 L 6.5625 0 Z M 1.796875 0 "/></g></g></g><g fill="#ffffff" fill-opacity="1"><g transform="translate(78.597574, 72.589107)"><g><path d="M 9.703125 7.171875 C 7.773438 7.171875 6.050781 6.679688 4.53125 5.703125 C 3.019531 4.722656 2.117188 3.597656 1.828125 2.328125 L 6.984375 2.328125 C 7.296875 2.890625 7.679688 3.265625 8.140625 3.453125 C 8.597656 3.640625 9.191406 3.734375 9.921875 3.734375 C 12.296875 3.734375 13.484375 2.5625 13.484375 0.21875 L 13.484375 -1.734375 C 12.234375 -0.429688 10.253906 0.21875 7.546875 0.21875 C 5.671875 0.21875 4.125 -0.546875 2.90625 -2.078125 C 1.695312 -3.609375 1.09375 -5.457031 1.09375 -7.625 C 1.09375 -9.976562 1.710938 -11.851562 2.953125 -13.25 C 4.203125 -14.65625 5.96875 -15.359375 8.25 -15.359375 C 10.539062 -15.359375 12.285156 -14.753906 13.484375 -13.546875 L 13.765625 -15 L 18.25 -15 L 18.25 -1.03125 C 18.25 1.769531 17.59375 3.835938 16.28125 5.171875 C 14.976562 6.503906 12.785156 7.171875 9.703125 7.171875 Z M 9.390625 -3.21875 C 10.492188 -3.21875 11.453125 -3.523438 12.265625 -4.140625 C 13.078125 -4.765625 13.484375 -5.535156 13.484375 -6.453125 L 13.484375 -8.828125 C 13.484375 -9.722656 13.097656 -10.460938 12.328125 -11.046875 C 11.566406 -11.640625 10.691406 -11.9375 9.703125 -11.9375 C 8.578125 -11.9375 7.65625 -11.625 6.9375 -11 C 6.21875 -10.375 5.859375 -9.378906 5.859375 -8.015625 L 5.859375 -7.625 C 5.859375 -6.332031 6.195312 -5.273438 6.875 -4.453125 C 7.5625 -3.628906 8.398438 -3.21875 9.390625 -3.21875 Z M 9.390625 -3.21875 "/></g></g></g><g fill="#ffffff" fill-opacity="1"><g transform="translate(98.637309, 72.589107)"><g><path d="M 9.703125 0.21875 C 6.835938 0.21875 4.6875 -0.507812 3.25 -1.96875 C 1.8125 -3.4375 1.09375 -5.296875 1.09375 -7.546875 C 1.09375 -9.859375 1.789062 -11.738281 3.1875 -13.1875 C 4.59375 -14.632812 6.726562 -15.359375 9.59375 -15.359375 C 12.445312 -15.359375 14.550781 -14.632812 15.90625 -13.1875 C 17.257812 -11.738281 17.9375 -9.859375 17.9375 -7.546875 L 17.9375 -5.828125 L 5.859375 -5.828125 C 6.003906 -4.835938 6.382812 -4.15625 7 -3.78125 C 7.625 -3.40625 8.515625 -3.21875 9.671875 -3.21875 C 11.054688 -3.21875 11.960938 -3.660156 12.390625 -4.546875 L 17.1875 -4.546875 C 17.019531 -3.179688 16.226562 -2.046875 14.8125 -1.140625 C 13.40625 -0.234375 11.703125 0.21875 9.703125 0.21875 Z M 5.890625 -9.171875 L 13.234375 -9.171875 C 12.898438 -10.253906 12.453125 -10.984375 11.890625 -11.359375 C 11.328125 -11.742188 10.550781 -11.9375 9.5625 -11.9375 C 8.570312 -11.9375 7.796875 -11.742188 7.234375 -11.359375 C 6.671875 -10.984375 6.222656 -10.253906 5.890625 -9.171875 Z M 5.890625 -9.171875 "/></g></g></g><g fill="#ffffff" fill-opacity="1"><g transform="translate(117.477464, 72.589107)"><g><path d="M 1.796875 0 L 1.796875 -15 L 6.28125 -15 L 6.5625 -13.59375 C 7.695312 -14.769531 9.367188 -15.359375 11.578125 -15.359375 C 13.648438 -15.359375 15.257812 -14.773438 16.40625 -13.609375 C 17.5625 -12.441406 18.140625 -10.800781 18.140625 -8.6875 L 18.140625 0 L 13.375 0 L 13.375 -8.15625 C 13.375 -9.539062 13.101562 -10.515625 12.5625 -11.078125 C 12.019531 -11.648438 11.222656 -11.9375 10.171875 -11.9375 C 9.296875 -11.9375 8.472656 -11.59375 7.703125 -10.90625 C 6.941406 -10.226562 6.5625 -9.441406 6.5625 -8.546875 L 6.5625 0 Z M 1.796875 0 "/></g></g></g><g fill="#ffffff" fill-opacity="1"><g transform="translate(137.058528, 72.589107)"><g><path d="M 8.78125 0.21875 C 6.945312 0.21875 5.625 -0.316406 4.8125 -1.390625 C 4 -2.460938 3.59375 -4.09375 3.59375 -6.28125 L 3.59375 -11.40625 L 0.734375 -11.40625 L 0.734375 -15 L 3.59375 -15 L 3.59375 -19.484375 L 8.40625 -20.75 L 8.40625 -15 L 12.171875 -15 L 12.171875 -11.40625 L 8.40625 -11.40625 L 8.40625 -5.859375 C 8.40625 -4.234375 9.296875 -3.421875 11.078125 -3.421875 C 11.296875 -3.421875 11.660156 -3.445312 12.171875 -3.5 L 12.171875 -0.140625 C 11.515625 0.0234375 10.382812 0.144531 8.78125 0.21875 Z M 8.78125 0.21875 "/></g></g></g><g fill="#ffffff" fill-opacity="1"><g transform="translate(150.50066, 72.589107)"><g><path d="M 9.703125 0.21875 C 6.835938 0.21875 4.6875 -0.507812 3.25 -1.96875 C 1.8125 -3.4375 1.09375 -5.296875 1.09375 -7.546875 C 1.09375 -9.859375 1.789062 -11.738281 3.1875 -13.1875 C 4.59375 -14.632812 6.726562 -15.359375 9.59375 -15.359375 C 12.445312 -15.359375 14.550781 -14.632812 15.90625 -13.1875 C 17.257812 -11.738281 17.9375 -9.859375 17.9375 -7.546875 L 17.9375 -5.828125 L 5.859375 -5.828125 C 6.003906 -4.835938 6.382812 -4.15625 7 -3.78125 C 7.625 -3.40625 8.515625 -3.21875 9.671875 -3.21875 C 11.054688 -3.21875 11.960938 -3.660156 12.390625 -4.546875 L 17.1875 -4.546875 C 17.019531 -3.179688 16.226562 -2.046875 14.8125 -1.140625 C 13.40625 -0.234375 11.703125 0.21875 9.703125 0.21875 Z M 5.890625 -9.171875 L 13.234375 -9.171875 C 12.898438 -10.253906 12.453125 -10.984375 11.890625 -11.359375 C 11.328125 -11.742188 10.550781 -11.9375 9.5625 -11.9375 C 8.570312 -11.9375 7.796875 -11.742188 7.234375 -11.359375 C 6.671875 -10.984375 6.222656 -10.253906 5.890625 -9.171875 Z M 5.890625 -9.171875 "/></g></g></g><g fill="#ffffff" fill-opacity="1"><g transform="translate(169.340815, 72.589107)"><g><path d="M 8.6875 0.21875 C 4.375 0.21875 1.84375 -1.3125 1.09375 -4.375 L 5.828125 -4.375 C 6.316406 -3.4375 7.207031 -2.96875 8.5 -2.96875 C 10.363281 -2.96875 11.296875 -3.425781 11.296875 -4.34375 C 11.296875 -4.738281 10.976562 -5.019531 10.34375 -5.1875 C 9.632812 -5.375 8.8125 -5.550781 7.875 -5.71875 C 3.425781 -6.46875 1.203125 -8.054688 1.203125 -10.484375 C 1.203125 -13.734375 3.566406 -15.359375 8.296875 -15.359375 C 12.316406 -15.359375 14.703125 -13.828125 15.453125 -10.765625 L 10.6875 -10.765625 C 10.550781 -11.117188 10.410156 -11.378906 10.265625 -11.546875 C 10.128906 -11.710938 9.898438 -11.859375 9.578125 -11.984375 C 9.265625 -12.109375 8.835938 -12.171875 8.296875 -12.171875 C 6.742188 -12.171875 5.96875 -11.703125 5.96875 -10.765625 C 5.96875 -10.597656 6.03125 -10.429688 6.15625 -10.265625 C 6.289062 -10.109375 6.492188 -9.96875 6.765625 -9.84375 C 7.035156 -9.726562 7.304688 -9.625 7.578125 -9.53125 C 7.847656 -9.4375 8.1875 -9.34375 8.59375 -9.25 C 9.007812 -9.15625 9.363281 -9.078125 9.65625 -9.015625 C 9.945312 -8.960938 10.3125 -8.894531 10.75 -8.8125 C 11.1875 -8.726562 11.5 -8.671875 11.6875 -8.640625 C 14.601562 -8.035156 16.0625 -6.765625 16.0625 -4.828125 C 16.0625 -3.234375 15.410156 -1.992188 14.109375 -1.109375 C 12.816406 -0.222656 11.007812 0.21875 8.6875 0.21875 Z M 8.6875 0.21875 "/></g></g></g><g fill="#ffffff" fill-opacity="1"><g transform="translate(186.311083, 72.589107)"><g><path d="M 1.984375 0 L 1.984375 -4.546875 L 6.640625 -4.546875 L 6.640625 0 Z M 1.984375 0 "/></g></g></g></g></g></g><g clip-path="url(#102b0239d3)"><g transform="matrix(1, 0, 0, 1, -0.000000000000028422, 78)"><g clip-path="url(#ce7e5517c1)"><g clip-path="url(#60cfac4eab)"><g fill="#ffffff" fill-opacity="1"><g transform="translate(0.626138, 23.517022)"><g><path d="M 4.015625 0 L 4.015625 -10.03125 L 0.328125 -10.03125 L 0.328125 -12.15625 L 10.5 -12.15625 L 10.5 -10.03125 L 6.8125 -10.03125 L 6.8125 0 Z M 4.015625 0 "/></g></g></g></g><g fill="#ffffff" fill-opacity="1"><g transform="translate(11.452788, 23.517022)"><g><path d="M 5.71875 0.125 C 4.019531 0.125 2.75 -0.300781 1.90625 -1.15625 C 1.0625 -2.019531 0.640625 -3.117188 0.640625 -4.453125 C 0.640625 -5.804688 1.050781 -6.910156 1.875 -7.765625 C 2.707031 -8.617188 3.96875 -9.046875 5.65625 -9.046875 C 7.332031 -9.046875 8.566406 -8.617188 9.359375 -7.765625 C 10.160156 -6.910156 10.5625 -5.804688 10.5625 -4.453125 L 10.5625 -3.421875 L 3.453125 -3.421875 C 3.535156 -2.847656 3.757812 -2.445312 4.125 -2.21875 C 4.488281 -2 5.007812 -1.890625 5.6875 -1.890625 C 6.507812 -1.890625 7.046875 -2.15625 7.296875 -2.6875 L 10.125 -2.6875 C 10.019531 -1.875 9.550781 -1.203125 8.71875 -0.671875 C 7.894531 -0.140625 6.894531 0.125 5.71875 0.125 Z M 3.46875 -5.40625 L 7.796875 -5.40625 C 7.597656 -6.039062 7.332031 -6.46875 7 -6.6875 C 6.664062 -6.914062 6.207031 -7.03125 5.625 -7.03125 C 5.050781 -7.03125 4.597656 -6.914062 4.265625 -6.6875 C 3.929688 -6.46875 3.664062 -6.039062 3.46875 -5.40625 Z M 3.46875 -5.40625 "/></g></g></g><g fill="#ffffff" fill-opacity="1"><g transform="translate(22.549588, 23.517022)"><g><path d="M 5.875 0.125 C 4.15625 0.125 2.851562 -0.300781 1.96875 -1.15625 C 1.082031 -2.007812 0.640625 -3.109375 0.640625 -4.453125 C 0.640625 -5.796875 1.082031 -6.894531 1.96875 -7.75 C 2.851562 -8.613281 4.15625 -9.046875 5.875 -9.046875 C 7.382812 -9.046875 8.507812 -8.769531 9.25 -8.21875 C 10 -7.664062 10.460938 -6.851562 10.640625 -5.78125 L 7.828125 -5.78125 C 7.648438 -6.613281 7 -7.03125 5.875 -7.03125 C 5.09375 -7.03125 4.492188 -6.804688 4.078125 -6.359375 C 3.660156 -5.910156 3.453125 -5.269531 3.453125 -4.4375 C 3.453125 -3.613281 3.660156 -2.984375 4.078125 -2.546875 C 4.492188 -2.109375 5.09375 -1.890625 5.875 -1.890625 C 7 -1.890625 7.648438 -2.304688 7.828125 -3.140625 L 10.640625 -3.140625 C 10.460938 -2.054688 10.003906 -1.238281 9.265625 -0.6875 C 8.535156 -0.144531 7.40625 0.125 5.875 0.125 Z M 5.875 0.125 "/></g></g></g><g fill="#ffffff" fill-opacity="1"><g transform="translate(33.646389, 23.517022)"><g><path d="M 1.0625 0 L 1.0625 -12.15625 L 3.859375 -12.15625 L 3.859375 -8 C 4.523438 -8.695312 5.507812 -9.046875 6.8125 -9.046875 C 8.03125 -9.046875 8.976562 -8.703125 9.65625 -8.015625 C 10.34375 -7.328125 10.6875 -6.359375 10.6875 -5.109375 L 10.6875 0 L 7.875 0 L 7.875 -4.796875 C 7.875 -5.617188 7.710938 -6.195312 7.390625 -6.53125 C 7.078125 -6.863281 6.609375 -7.03125 5.984375 -7.03125 C 5.472656 -7.03125 4.988281 -6.828125 4.53125 -6.421875 C 4.082031 -6.015625 3.859375 -5.550781 3.859375 -5.03125 L 3.859375 0 Z M 1.0625 0 "/></g></g></g></g></g></g></g></g><g clip-path="url(#363f63b3ad)"><g clip-path="url(#5954a31037)"><g clip-path="url(#21faada0dc)"><path fill="#c4ff00" d="M 120.296875 151.644531 L 120.300781 151.644531 L 123.894531 61.851562 L 123.875 61.835938 C 123.964844 60.109375 123.179688 58.386719 121.625 57.375 C 120.230469 56.46875 118.5625 56.359375 117.117188 56.90625 L 117.109375 56.902344 L 117.054688 56.929688 C 116.785156 57.035156 116.523438 57.171875 116.273438 57.324219 L 37.183594 97.671875 C 36.300781 98.046875 35.519531 98.679688 34.960938 99.542969 C 33.453125 101.859375 34.109375 104.960938 36.429688 106.464844 L 112.570312 155.945312 C 114.886719 157.453125 117.984375 156.792969 119.492188 154.476562 C 120.058594 153.601562 120.320312 152.613281 120.296875 151.644531 Z M 120.296875 151.644531 " fill-opacity="1" fill-rule="nonzero"/></g></g></g></svg>